<svg xmlns="http://www.w3.org/2000/svg" width="56" height="38" viewBox="0 0 56 38"><path fill="#F9F9F9" d="M56 35.2c0 1.5-1.3 2.8-2.8 2.8h-50.4c-1.5 0-2.8-1.3-2.8-2.8v-32.4c0-1.5 1.3-2.8 2.8-2.8h50.4c1.5 0 2.8 1.3 2.8 2.8v32.4z"/><path fill="#265697" d="M53.2 0h-50.4c-1.5 0-2.8 1.3-2.8 2.8v7.8h56v-7.8c0-1.5-1.3-2.8-2.8-2.8z"/><path fill="#D97B16" d="M0 28.8v6.4c0 1.5 1.3 2.8 2.8 2.8h50.4c1.5 0 2.8-1.3 2.8-2.8v-6.4h-56z"/><path fill="#265697" d="M34.9 15c-.6-.2-1.4-.4-2.5-.4-2.8 0-4.8 1.4-4.8 3.5 0 1.5 1.4 2.4 2.5 2.9s1.5.9 1.5 1.3c0 .7-.9 1-1.7 1-1.1 0-1.7-.2-2.7-.6l-.4-.2-.4 2.5c.7.3 1.9.6 3.2.6 3 0 4.9-1.4 5-3.6 0-1.2-.7-2.1-2.4-2.9-1-.5-1.6-.8-1.6-1.3 0-.4.5-.9 1.6-.9.9 0 1.6.2 2.1.4l.3.1.3-2.4"/><path fill="#265697" d="M42.2 14.7h-2.2c-.7 0-1.2.2-1.5.9l-4.2 9.8h3s.5-1.3.6-1.6h3.6c.1.4.3 1.6.3 1.6h2.6l-2.2-10.7zm-3.5 6.9c.2-.6 1.1-3 1.1-3s.2-.6.4-1l.2.9s.5 2.5.7 3.1h-2.4z"/><path fill="#265697" d="M21.8 25.4l1.8-10.7h2.8l-1.8 10.7h-2.8z"/><path fill="#265697" d="M19.4 14.7l-2.8 7.3-.3-1.5c-.5-1.7-2.1-3.5-3.9-4.5l2.5 9.3h3l4.5-10.6h-3"/><path fill="#D97B16" d="M14 14.7h-4.6v.2c3.6.9 5.9 3 6.9 5.6l-1-4.9c-.2-.7-.7-.9-1.3-.9"/></svg>