<svg xmlns="http://www.w3.org/2000/svg" width="56" height="38" viewBox="0 0 56 38"><path fill="#4C64BC" d="M56 35.2c0 1.5-1.3 2.8-2.8 2.8h-50.4c-1.5 0-2.8-1.3-2.8-2.8v-32.4c0-1.5 1.3-2.8 2.8-2.8h50.4c1.5 0 2.8 1.3 2.8 2.8v32.4z"/><path fill="#f90" d="M47.1 19.4c0 6.4-5.2 11.6-11.6 11.6-6.4 0-11.6-5.2-11.6-11.6 0-6.4 5.2-11.6 11.6-11.6 6.4 0 11.6 5.2 11.6 11.6z"/><path fill="#c00" d="M31.6 19.4h-7.6c0-.4 0-.8.1-1.2h7.5c0-.4-.1-.9-.2-1.3h-7.1l.3-1.2h6.4c-.1-.4-.3-.8-.5-1.2h-5.5c.2-.4.4-.8.7-1.2h4.1l-.9-1.2h-2.3c.4-.4.7-.8 1.2-1.2-2.1-1.9-4.8-3-7.8-3h-.1c-6.4 0-11.5 5.1-11.5 11.5s5.2 11.6 11.6 11.6c3 0 5.7-1.1 7.8-3l1.2-1.2h-2.4l-.9-1.2h4.1l.7-1.2h-5.5l-.5-1.2h6.5l.3-1.2h-7.1c-.1-.5-.2-1-.2-1.4h7.5l.1-1.2z"/></svg>